<svg width="120" height="22" viewBox="0 0 120 22" fill="none" xmlns="http://www.w3.org/2000/svg">
<path d="M0 7.85714C0 6.12366 1.40937 4.71429 3.14286 4.71429C3.16741 4.71429 3.19687 4.71429 3.22143 4.71429C3.58482 2.92188 5.17098 1.57143 7.07143 1.57143C7.80804 1.57143 8.49554 1.77277 9.07991 2.12143C9.73304 0.864286 11.054 0 12.5714 0C14.0888 0 15.4098 0.864286 16.0629 2.12143C16.6473 1.77277 17.3348 1.57143 18.0714 1.57143C19.9719 1.57143 21.558 2.92188 21.9214 4.71429C21.946 4.71429 21.9754 4.71429 22 4.71429C23.7335 4.71429 25.1429 6.12366 25.1429 7.85714C25.1429 8.4317 24.9906 8.96696 24.7205 9.42857H0.422321C0.152232 8.96696 0 8.4317 0 7.85714ZM0 12.3455C0 11.604 0.604018 11 1.34554 11H23.7973C24.5388 11 25.1429 11.604 25.1429 12.3455C25.1429 15.8076 22.9625 18.7638 19.9031 19.9129L19.8147 20.625C19.7165 21.4107 19.0487 22 18.2531 22H6.88482C6.0942 22 5.42143 21.4107 5.32321 20.625L5.23482 19.9179C2.18036 18.7638 0 15.8076 0 12.3455Z" fill="#FF651C"/>
<path d="M31.9863 21.9398C31.3643 21.9398 30.8728 21.7693 30.5116 21.4282C30.1705 21.067 30 20.5554 30 19.8933V2.52804C30 1.86594 30.1705 1.36434 30.5116 1.02326C30.8728 0.662106 31.3844 0.481531 32.0465 0.481531H42.5499C43.0716 0.481531 43.4628 0.611946 43.7237 0.872777C43.9845 1.13361 44.1149 1.50479 44.1149 1.98632C44.1149 2.48792 43.9845 2.87916 43.7237 3.16005C43.4628 3.42088 43.0716 3.5513 42.5499 3.5513H33.8523V9.54035H41.9179C42.4195 9.54035 42.8007 9.67077 43.0616 9.9316C43.3425 10.1924 43.4829 10.5636 43.4829 11.0451C43.4829 11.5467 43.3425 11.938 43.0616 12.2189C42.8007 12.4797 42.4195 12.6101 41.9179 12.6101H33.8523V19.8933C33.8523 21.2576 33.2303 21.9398 31.9863 21.9398Z" fill="white"/>
<path d="M52.7207 22C51.1958 22 49.8716 21.689 48.748 21.067C47.6244 20.4451 46.7517 19.5622 46.1297 18.4186C45.5077 17.2549 45.1967 15.8906 45.1967 14.3256C45.1967 13.1418 45.3673 12.0885 45.7083 11.1655C46.0695 10.2225 46.5811 9.41997 47.2432 8.75787C47.9053 8.0757 48.6979 7.56407 49.6208 7.22298C50.5437 6.86183 51.577 6.68126 52.7207 6.68126C54.2455 6.68126 55.5697 6.99225 56.6933 7.61423C57.8169 8.23621 58.6896 9.11901 59.3116 10.2627C59.9336 11.4063 60.2446 12.7606 60.2446 14.3256C60.2446 15.5093 60.064 16.5727 59.7029 17.5157C59.3618 18.4587 58.8602 19.2713 58.1981 19.9535C57.536 20.6156 56.7435 21.1272 55.8205 21.4884C54.8976 21.8295 53.8643 22 52.7207 22ZM52.7207 19.1409C53.463 19.1409 54.1151 18.9603 54.6769 18.5992C55.2387 18.238 55.67 17.7063 55.971 17.0041C56.292 16.2818 56.4525 15.389 56.4525 14.3256C56.4525 12.7205 56.1114 11.5267 55.4293 10.7442C54.7471 9.94163 53.8442 9.54035 52.7207 9.54035C51.9783 9.54035 51.3262 9.72093 50.7644 10.0821C50.2026 10.4232 49.7612 10.9549 49.4402 11.6772C49.1393 12.3794 48.9888 13.2622 48.9888 14.3256C48.9888 15.9106 49.3299 17.1145 50.012 17.9371C50.6942 18.7396 51.5971 19.1409 52.7207 19.1409Z" fill="white"/>
<path d="M70.061 22C68.5361 22 67.2119 21.689 66.0883 21.067C64.9648 20.4451 64.092 19.5622 63.47 18.4186C62.848 17.2549 62.537 15.8906 62.537 14.3256C62.537 13.1418 62.7076 12.0885 63.0487 11.1655C63.4098 10.2225 63.9214 9.41997 64.5835 8.75787C65.2457 8.0757 66.0382 7.56407 66.9611 7.22298C67.8841 6.86183 68.9173 6.68126 70.061 6.68126C71.5858 6.68126 72.91 6.99225 74.0336 7.61423C75.1572 8.23621 76.03 9.11901 76.652 10.2627C77.2739 11.4063 77.5849 12.7606 77.5849 14.3256C77.5849 15.5093 77.4043 16.5727 77.0432 17.5157C76.7021 18.4587 76.2005 19.2713 75.5384 19.9535C74.8763 20.6156 74.0838 21.1272 73.1608 21.4884C72.2379 21.8295 71.2046 22 70.061 22ZM70.061 19.1409C70.8033 19.1409 71.4554 18.9603 72.0172 18.5992C72.579 18.238 73.0104 17.7063 73.3113 17.0041C73.6323 16.2818 73.7929 15.389 73.7929 14.3256C73.7929 12.7205 73.4518 11.5267 72.7696 10.7442C72.0874 9.94163 71.1846 9.54035 70.061 9.54035C69.3186 9.54035 68.6665 9.72093 68.1048 10.0821C67.543 10.4232 67.1016 10.9549 66.7805 11.6772C66.4796 12.3794 66.3291 13.2622 66.3291 14.3256C66.3291 15.9106 66.6702 17.1145 67.3524 17.9371C68.0345 18.7396 68.9374 19.1409 70.061 19.1409Z" fill="white"/>
<path d="M86.348 22C85.0639 22 83.9303 21.689 82.9471 21.067C81.9841 20.4451 81.2317 19.5622 80.69 18.4186C80.1482 17.2549 79.8774 15.8906 79.8774 14.3256C79.8774 12.7405 80.1482 11.3862 80.69 10.2627C81.2317 9.11901 81.9841 8.23621 82.9471 7.61423C83.9303 6.99225 85.0639 6.68126 86.348 6.68126C87.5719 6.68126 88.6352 6.98222 89.5381 7.58413C90.461 8.18605 91.083 8.97857 91.404 9.9617H91.073V2.1368C91.073 1.51482 91.2335 1.04332 91.5545 0.722298C91.8755 0.401276 92.337 0.240765 92.9389 0.240765C93.5408 0.240765 94.0023 0.401276 94.3233 0.722298C94.6644 1.04332 94.835 1.51482 94.835 2.1368V20.0137C94.835 20.6357 94.6745 21.1172 94.3534 21.4583C94.0324 21.7793 93.5709 21.9398 92.969 21.9398C92.3671 21.9398 91.9056 21.7793 91.5846 21.4583C91.2636 21.1172 91.1031 20.6357 91.1031 20.0137V17.6662L91.4341 18.5691C91.1332 19.6124 90.5212 20.4451 89.5983 21.067C88.6754 21.689 87.5919 22 86.348 22ZM87.4013 19.1409C88.1437 19.1409 88.7957 18.9603 89.3575 18.5992C89.9193 18.238 90.3507 17.7063 90.6517 17.0041C90.9727 16.2818 91.1332 15.389 91.1332 14.3256C91.1332 12.7205 90.7921 11.5267 90.1099 10.7442C89.4278 9.94163 88.5249 9.54035 87.4013 9.54035C86.6589 9.54035 86.0069 9.72093 85.4451 10.0821C84.8833 10.4232 84.4419 10.9549 84.1209 11.6772C83.8199 12.3794 83.6694 13.2622 83.6694 14.3256C83.6694 15.9106 84.0105 17.1145 84.6927 17.9371C85.3749 18.7396 86.2777 19.1409 87.4013 19.1409Z" fill="white"/>
<path d="M100.602 21.9097C99.9997 21.9097 99.5382 21.7291 99.2172 21.368C98.8962 21.0068 98.7357 20.5052 98.7357 19.8632V8.81806C98.7357 8.15595 98.8962 7.65435 99.2172 7.31327C99.5382 6.95212 99.9997 6.77154 100.602 6.77154C101.204 6.77154 101.665 6.95212 101.986 7.31327C102.327 7.65435 102.498 8.15595 102.498 8.81806V19.8632C102.498 20.5052 102.337 21.0068 102.016 21.368C101.695 21.7291 101.224 21.9097 100.602 21.9097ZM100.602 3.97264C99.8994 3.97264 99.3476 3.8021 98.9463 3.46101C98.5651 3.09986 98.3745 2.6083 98.3745 1.98632C98.3745 1.34428 98.5651 0.852712 98.9463 0.511627C99.3476 0.170542 99.8994 0 100.602 0C101.324 0 101.876 0.170542 102.257 0.511627C102.638 0.852712 102.829 1.34428 102.829 1.98632C102.829 2.6083 102.638 3.09986 102.257 3.46101C101.876 3.8021 101.324 3.97264 100.602 3.97264Z" fill="white"/>
<path d="M113.66 22C111.994 22 110.56 21.689 109.356 21.067C108.152 20.4451 107.219 19.5622 106.557 18.4186C105.915 17.275 105.594 15.9207 105.594 14.3557C105.594 12.8308 105.905 11.4966 106.527 10.3529C107.169 9.2093 108.042 8.31646 109.145 7.67442C110.269 7.01231 111.543 6.68126 112.967 6.68126C114.011 6.68126 114.944 6.8518 115.766 7.19289C116.609 7.53397 117.321 8.02553 117.903 8.66758C118.505 9.30962 118.956 10.0921 119.257 11.015C119.578 11.9179 119.739 12.9412 119.739 14.0848C119.739 14.446 119.609 14.7269 119.348 14.9275C119.107 15.1081 118.756 15.1984 118.294 15.1984H108.634V13.0315H117.091L116.609 13.4829C116.609 12.56 116.469 11.7875 116.188 11.1655C115.927 10.5435 115.536 10.072 115.014 9.75103C114.512 9.40994 113.88 9.2394 113.118 9.2394C112.275 9.2394 111.553 9.44004 110.951 9.84131C110.369 10.2225 109.918 10.7743 109.597 11.4966C109.296 12.1988 109.145 13.0415 109.145 14.0246V14.2353C109.145 15.8805 109.526 17.1145 110.289 17.9371C111.071 18.7396 112.215 19.1409 113.72 19.1409C114.241 19.1409 114.823 19.0807 115.465 18.9603C116.127 18.8199 116.749 18.5891 117.331 18.2681C117.753 18.0274 118.124 17.927 118.445 17.9672C118.766 17.9872 119.017 18.0976 119.197 18.2982C119.398 18.4989 119.518 18.7497 119.558 19.0506C119.599 19.3315 119.538 19.6224 119.378 19.9234C119.237 20.2244 118.987 20.4852 118.625 20.7059C117.923 21.1473 117.111 21.4783 116.188 21.699C115.285 21.8997 114.442 22 113.66 22Z" fill="white"/>
</svg>
